<svg id="Group_49" data-name="Group 49" xmlns="http://www.w3.org/2000/svg" width="64" height="64" viewBox="0 0 64 64">
  <path id="Path_197" data-name="Path 197" d="M54.624,9.369A32,32,0,1,0,64,31.993,32,32,0,0,0,54.624,9.369ZM48.463,44.575l0,0v-.011L46.837,46.18a8.533,8.533,0,0,1-8.053,2.3,28.354,28.354,0,0,1-8.235-3.691,38.047,38.047,0,0,1-6.5-5.237A38.339,38.339,0,0,1,19.2,33.668a29.863,29.863,0,0,1-3.648-7.381,8.533,8.533,0,0,1,2.133-8.715l1.9-1.9a1.355,1.355,0,0,1,1.916,0l0,0L27.5,21.668a1.355,1.355,0,0,1,0,1.916l0,0-3.52,3.52a2.869,2.869,0,0,0-.3,3.733,41.167,41.167,0,0,0,4.213,4.917A40.915,40.915,0,0,0,33.44,40.42a2.891,2.891,0,0,0,3.691-.32l3.4-3.456a1.355,1.355,0,0,1,1.916,0l0,0,6.005,6.016A1.354,1.354,0,0,1,48.463,44.575Z" transform="translate(0 0)"/>
</svg>
