<svg id="email_1_" data-name="email (1)" xmlns="http://www.w3.org/2000/svg" width="64" height="64" viewBox="0 0 64 64">
  <path id="Path_378" data-name="Path 378" d="M159.522,144h-25.9l12.948,11.1Zm0,0" transform="translate(-114.573 -123.441)"/>
  <path id="Path_379" data-name="Path 379" d="M134.9,165.8a1.144,1.144,0,0,1-.746-.276L120,153.391v21.579h29.8V153.391l-14.155,12.133A1.144,1.144,0,0,1,134.9,165.8Zm0,0" transform="translate(-102.901 -131.51)"/>
  <path id="Path_380" data-name="Path 380" d="M32,0A32,32,0,1,0,64,32,32,32,0,0,0,32,0ZM49.143,44.571A1.143,1.143,0,0,1,48,45.714H16a1.143,1.143,0,0,1-1.143-1.143V19.429A1.143,1.143,0,0,1,16,18.286H48a1.143,1.143,0,0,1,1.143,1.143Zm0,0"/>
</svg>
