<svg id="instagram_5_" data-name="instagram (5)" xmlns="http://www.w3.org/2000/svg" width="64" height="64" viewBox="0 0 64 64">
  <path id="Path_600" data-name="Path 600" d="M219.266,213.133A6.133,6.133,0,1,1,213.133,207,6.133,6.133,0,0,1,219.266,213.133Zm0,0" transform="translate(-181.133 -181.133)"/>
  <path id="Path_601" data-name="Path 601" d="M164.912,139.721a6.093,6.093,0,0,0-3.492-3.492A10.179,10.179,0,0,0,158,135.6c-1.941-.088-2.522-.108-7.435-.108s-5.495.019-7.435.107a10.186,10.186,0,0,0-3.416.634,6.1,6.1,0,0,0-3.492,3.492,10.184,10.184,0,0,0-.633,3.417c-.089,1.94-.108,2.522-.108,7.435s.019,5.495.108,7.435a10.18,10.18,0,0,0,.633,3.416,6.093,6.093,0,0,0,3.492,3.492,10.168,10.168,0,0,0,3.417.634c1.94.089,2.521.107,7.435.107s5.5-.019,7.435-.107a10.168,10.168,0,0,0,3.417-.634,6.093,6.093,0,0,0,3.492-3.492,10.189,10.189,0,0,0,.634-3.416c.089-1.941.107-2.522.107-7.435s-.019-5.495-.107-7.435A10.167,10.167,0,0,0,164.912,139.721Zm-14.343,20.3a9.448,9.448,0,1,1,9.448-9.448A9.448,9.448,0,0,1,150.569,160.02Zm9.821-17.061a2.208,2.208,0,1,1,2.208-2.208A2.208,2.208,0,0,1,160.39,142.959Zm0,0" transform="translate(-118.569 -118.572)"/>
  <path id="Path_602" data-name="Path 602" d="M32,0A32,32,0,1,0,64,32,32,32,0,0,0,32,0ZM50.264,39.576a13.481,13.481,0,0,1-.854,4.46,9.4,9.4,0,0,1-5.374,5.374,13.491,13.491,0,0,1-4.46.854c-1.959.089-2.585.111-7.576.111s-5.616-.021-7.576-.111a13.491,13.491,0,0,1-4.46-.854,9.4,9.4,0,0,1-5.374-5.374,13.478,13.478,0,0,1-.854-4.46c-.09-1.96-.111-2.586-.111-7.576s.021-5.616.111-7.576a13.483,13.483,0,0,1,.854-4.46,9.4,9.4,0,0,1,5.375-5.374,13.494,13.494,0,0,1,4.46-.854c1.959-.089,2.585-.111,7.576-.111s5.616.021,7.576.111a13.5,13.5,0,0,1,4.46.853,9.4,9.4,0,0,1,5.374,5.375,13.48,13.48,0,0,1,.854,4.46c.089,1.959.11,2.585.11,7.576S50.354,37.616,50.264,39.576Zm0,0"/>
</svg>
