<svg xmlns="http://www.w3.org/2000/svg" width="450.614" height="173.111" viewBox="0 0 450.614 173.111">
  <g id="Group_105" data-name="Group 105" transform="translate(-195.698 -211.084)">
    <path id="Path_1" data-name="Path 1" d="M195.7,211.084V384.2H579.916v-.005c.133,0,.268.005.414.005a65.986,65.986,0,0,0,65.982-65.988V211.084ZM623.566,318.238a43.215,43.215,0,0,1-86.431,0V241.447a215.469,215.469,0,0,0,43.217-15.184,215.594,215.594,0,0,0,43.214,15.184Z" fill="#0084bd"/>
    <path id="Path_2" data-name="Path 2" d="M537.135,241.447v76.791a43.215,43.215,0,0,0,86.431,0V241.447a215.594,215.594,0,0,1-43.214-15.184A215.469,215.469,0,0,1,537.135,241.447Zm61.488,100.516a31.957,31.957,0,0,1-7.277-1.735c-4.457-1.472-8.6-.314-11,2.457-2.418-2.771-6.541-3.929-10.989-2.457a32.185,32.185,0,0,1-7.285,1.735l-5.1-23.688c1.939.17,5.439.569,11.2-2.1,3.92-1.809,7.1-1.494,8.684-.8s2.853,3.436,3.478,6.512c.006.007.018.007.018.552a3.049,3.049,0,0,1,.015-.552c.641-3.076,1.91-5.817,3.475-6.512,1.588-.7,4.758-1.012,8.7.8,5.75,2.668,9.268,2.269,11.2,2.1Zm7.83-56.63c-4.123.111-10.963.744-22.242,8.446q-.633.432-1.231.837c1.776,1.225,3.227,2.226,4.428,3.048.8-.554,1.531-.8,1.9-.554a.573.573,0,0,1,.229.413,2.238,2.238,0,0,1-.461,1.294c2.117,1.443,3.076,2.1,3.535,2.4a1.982,1.982,0,0,1,1.666-.783,1.764,1.764,0,0,1,1.881,1.625,1.564,1.564,0,0,1-.943,1.343,2.439,2.439,0,0,1-1.278.292c-2.091-.018-4.658-1.542-6.709-2.872a3.492,3.492,0,0,1-1.787.844.73.73,0,0,1-.383-.1.584.584,0,0,1-.228-.41,2.633,2.633,0,0,1,.584-1.508c-.178-.117-.352-.218-.51-.316l.033.014c-1.285-.781-2.785-1.753-4.591-2.953-1.8,1.2-3.311,2.172-4.588,2.953l.037-.014c-.16.1-.334.2-.514.316a2.68,2.68,0,0,1,.588,1.508.629.629,0,0,1-.232.41.684.684,0,0,1-.377.1,3.447,3.447,0,0,1-1.784-.844c-2.062,1.33-4.625,2.854-6.716,2.872a2.468,2.468,0,0,1-1.27-.282,1.586,1.586,0,0,1-.951-1.353,1.761,1.761,0,0,1,1.879-1.625,2.037,2.037,0,0,1,1.683.783c.436-.3,1.407-.953,3.514-2.4a2.351,2.351,0,0,1-.459-1.294.542.542,0,0,1,.236-.413c.358-.248,1.1,0,1.9.554,1.2-.822,2.656-1.823,4.426-3.048q-.6-.4-1.233-.837c-11.281-7.7-18.115-8.335-22.24-8.446,0,0,11.377-2.685,25.279,6.9l.821.564c.267-.186.541-.371.822-.564C595.074,282.648,606.453,285.333,606.453,285.333Zm-16.541-41.241a14.467,14.467,0,0,0-6.168,3.46c7.983-2,16.178,3.128,16.178,3.128a23.251,23.251,0,0,0-13.391.661A19.33,19.33,0,0,1,599.85,262.41s-6.129-5.957-14.112-6.93c4.321,4.046,4.584,11.461,4.584,11.461s-3.111-6.935-8.431-9.53c-.038,1.792-.051,3.791-.051,6.1,0,7.183.172,13.635.451,18.744a6.662,6.662,0,0,1,2.021-.5,9.01,9.01,0,0,0-1.753,2.075,9.854,9.854,0,0,1,3.421.033.353.353,0,0,0-.048.1,51.619,51.619,0,0,0-5.58,2.692,51.684,51.684,0,0,0-6.139-2.912.767.767,0,0,0-.051-.1,9.732,9.732,0,0,1,3.746.112,9,9,0,0,0-1.693-2,6.584,6.584,0,0,1,2.193.571c.287-5.122.463-11.6.463-18.816,0-2.309-.019-4.308-.055-6.1-5.334,2.6-8.427,9.53-8.427,9.53s.259-7.415,4.588-11.461c-7.987.968-14.12,6.93-14.12,6.93a19.317,19.317,0,0,1,13.307-11.069,23.247,23.247,0,0,0-13.387-.661s8.2-5.127,16.186-3.128a14.432,14.432,0,0,0-6.166-3.46,17.639,17.639,0,0,1,7.844.865,24.522,24.522,0,0,1,1.677-5.467,24.8,24.8,0,0,1,1.741,5.467A17.673,17.673,0,0,1,589.912,244.092Z" fill="#fff"/>
    <g id="Group_1" data-name="Group 1">
      <path id="Path_3" data-name="Path 3" d="M560.777,250.68a23.247,23.247,0,0,1,13.387.661,19.317,19.317,0,0,0-13.307,11.069s6.133-5.962,14.12-6.93c-4.329,4.046-4.588,11.461-4.588,11.461s3.093-6.935,8.427-9.53c.036,1.792.055,3.791.055,6.1,0,7.218-.176,13.694-.463,18.816a6.584,6.584,0,0,0-2.193-.571,9,9,0,0,1,1.693,2,9.732,9.732,0,0,0-3.746-.112.767.767,0,0,1,.051.1,51.684,51.684,0,0,1,6.139,2.912,51.619,51.619,0,0,1,5.58-2.692.353.353,0,0,1,.048-.1,9.854,9.854,0,0,0-3.421-.033,9.01,9.01,0,0,1,1.753-2.075,6.662,6.662,0,0,0-2.021.5c-.279-5.109-.451-11.561-.451-18.744,0-2.309.013-4.308.051-6.1,5.32,2.6,8.431,9.53,8.431,9.53s-.263-7.415-4.584-11.461c7.983.973,14.112,6.93,14.112,6.93a19.33,19.33,0,0,0-13.319-11.069,23.251,23.251,0,0,1,13.391-.661s-8.2-5.127-16.178-3.128a14.467,14.467,0,0,1,6.168-3.46,17.673,17.673,0,0,0-7.853.865,24.8,24.8,0,0,0-1.741-5.467,24.522,24.522,0,0,0-1.677,5.467,17.639,17.639,0,0,0-7.844-.865,14.432,14.432,0,0,1,6.166,3.46C568.978,245.553,560.777,250.68,560.777,250.68Z" fill="#0084bd"/>
      <path id="Path_4" data-name="Path 4" d="M594.279,300.43a1.982,1.982,0,0,0-1.666.783c-.459-.3-1.418-.953-3.535-2.4a2.238,2.238,0,0,0,.461-1.294.573.573,0,0,0-.229-.413c-.371-.25-1.1,0-1.9.554-1.2-.822-2.652-1.823-4.428-3.048q.6-.4,1.231-.837c11.279-7.7,18.119-8.335,22.242-8.446,0,0-11.379-2.685-25.283,6.9-.281.193-.555.378-.822.564l-.821-.564c-13.9-9.59-25.279-6.9-25.279-6.9,4.125.111,10.959.744,22.24,8.446q.63.432,1.233.837c-1.77,1.225-3.229,2.226-4.426,3.048-.8-.554-1.543-.8-1.9-.554a.542.542,0,0,0-.236.413,2.351,2.351,0,0,0,.459,1.294c-2.107,1.443-3.078,2.1-3.514,2.4a2.037,2.037,0,0,0-1.683-.783,1.761,1.761,0,0,0-1.879,1.625,1.586,1.586,0,0,0,.951,1.353,2.468,2.468,0,0,0,1.27.282c2.091-.018,4.654-1.542,6.716-2.872a3.447,3.447,0,0,0,1.784.844.684.684,0,0,0,.377-.1.629.629,0,0,0,.232-.41,2.68,2.68,0,0,0-.588-1.508c.18-.117.354-.218.514-.316l-.037.014c1.277-.781,2.785-1.753,4.588-2.953,1.806,1.2,3.306,2.172,4.591,2.953l-.033-.014c.158.1.332.2.51.316a2.633,2.633,0,0,0-.584,1.508.584.584,0,0,0,.228.41.73.73,0,0,0,.383.1,3.492,3.492,0,0,0,1.787-.844c2.051,1.33,4.618,2.854,6.709,2.872a2.439,2.439,0,0,0,1.278-.292,1.564,1.564,0,0,0,.943-1.343A1.764,1.764,0,0,0,594.279,300.43Z" fill="#0084bd"/>
    </g>
    <path id="Path_5" data-name="Path 5" d="M575.672,324.629a3.393,3.393,0,0,0-3.715,3.351c0,1.915,1.3,2.963,3.184,2.963a3.839,3.839,0,0,0,2.209-.628c-.157,1.748-.741,2.781-2.586,2.781a2.167,2.167,0,0,1-1.495-.459h-.8v1.605a5.587,5.587,0,0,0,2.193.389c3.158,0,4.906-1.869,4.906-5.209C579.572,326.191,577.908,324.629,575.672,324.629Zm-.043,4.849a1.391,1.391,0,0,1-1.522-1.566c0-1.049.418-1.859,1.565-1.859,1.062,0,1.664.81,1.719,2.892A3.21,3.21,0,0,1,575.629,329.478Z" fill="#fff"/>
    <path id="Path_6" data-name="Path 6" d="M566.518,326.191v1.453h.56l1.16-.613v7.49h2.18V324.74h-1.455Z" fill="#fff"/>
    <path id="Path_7" data-name="Path 7" d="M584.045,328.246a3.092,3.092,0,0,0-1.774.488h-.043v-2.291h4.334v-1.7h-5.9v5.715h1.3a1.916,1.916,0,0,1,1.539-.658c.8,0,1.424.476,1.424,1.594a1.685,1.685,0,0,1-1.9,1.675,2.562,2.562,0,0,1-1.861-.681h-.8v1.549a4.7,4.7,0,0,0,2.682.7c2.375,0,4.041-1.242,4.041-3.311A2.813,2.813,0,0,0,584.045,328.246Z" fill="#fff"/>
    <path id="Path_8" data-name="Path 8" d="M587.432,326.443h5v.057l-3.844,7.168v.854h2.082l3.369-7.924V324.74h-6.609Z" fill="#fff"/>
    <path id="Path_9" data-name="Path 9" d="M575.672,326.053c-1.147,0-1.565.81-1.565,1.859a1.391,1.391,0,0,0,1.522,1.566,3.21,3.21,0,0,0,1.762-.533C577.336,326.863,576.734,326.053,575.672,326.053Z" fill="#0084bd"/>
    <path id="Path_10" data-name="Path 10" d="M592.535,316.176c-3.939-1.809-7.109-1.494-8.7-.8-1.565.7-2.834,3.436-3.475,6.512a3.049,3.049,0,0,0-.015.552c0-.545-.012-.545-.018-.552-.625-3.076-1.9-5.817-3.478-6.512s-4.764-1.012-8.684.8c-5.76,2.668-9.26,2.269-11.2,2.1l5.1,23.688a32.185,32.185,0,0,0,7.285-1.735c4.448-1.472,8.571-.314,10.989,2.457,2.4-2.771,6.541-3.929,11-2.457a31.957,31.957,0,0,0,7.277,1.735l5.111-23.688C601.8,318.445,598.285,318.844,592.535,316.176Zm-22.117,18.346h-2.18v-7.491l-1.16.614h-.56v-1.454l2.445-1.451h1.455Zm4.248.109a5.587,5.587,0,0,1-2.193-.389v-1.605h.8a2.167,2.167,0,0,0,1.495.459c1.845,0,2.429-1.033,2.586-2.781a3.839,3.839,0,0,1-2.209.628c-1.887,0-3.184-1.048-3.184-2.963a3.393,3.393,0,0,1,3.715-3.351c2.236,0,3.9,1.562,3.9,4.793C579.572,332.762,577.824,334.631,574.666,334.631Zm8.387,0a4.7,4.7,0,0,1-2.682-.7v-1.549h.8a2.562,2.562,0,0,0,1.861.681,1.685,1.685,0,0,0,1.9-1.675c0-1.118-.627-1.594-1.424-1.594a1.916,1.916,0,0,0-1.539.658h-1.3V324.74h5.9v1.7h-4.334v2.291h.043a3.092,3.092,0,0,1,1.774-.488,2.813,2.813,0,0,1,3.049,3.074C587.094,333.389,585.428,334.631,583.053,334.631Zm10.988-8.033-3.369,7.924H588.59v-.854l3.844-7.168v-.057h-5v-1.7h6.609Z" fill="#0084bd"/>
    <g id="Group_4" data-name="Group 4">
      <path id="Path_11" data-name="Path 11" d="M512.752,280.053h-7.09v2.654h1.315a1.362,1.362,0,0,1,1.269,1.119v24.053h5.4V281.134C513.66,280.413,513.389,280.053,512.752,280.053Z" fill="#fff"/>
      <path id="Path_12" data-name="Path 12" d="M414.7,286.8h-5.3v-2.275a3.024,3.024,0,0,1,.274-1.388,1.758,1.758,0,0,1,.736-.809,2.958,2.958,0,0,1,1.109-.366,9.552,9.552,0,0,1,1.352-.084h1.54v-2.358h-2.268a6.108,6.108,0,0,0-3.943,1.2,4.582,4.582,0,0,0-1.5,3.8V286.8h-3.233v2.349H414.7Z" fill="#fff"/>
      <path id="Path_13" data-name="Path 13" d="M452.377,304.336a5.188,5.188,0,0,1-2.275-.443,3.963,3.963,0,0,1-1.471-1.221,5,5,0,0,1-.776-1.781,9.94,9.94,0,0,1-.212-2.074V288.766h-.012v-7.755c.015-.719-.26-1.084-.885-1.084h-7.105v2.647h1.322a1.375,1.375,0,0,1,1.273,1.129v11.456h0v6.226a4.125,4.125,0,0,1-.459,2.33,2.348,2.348,0,0,1-1.949.621h-7a5.678,5.678,0,0,1-2.27-.4,3.757,3.757,0,0,1-1.466-1.159,4.97,4.97,0,0,1-.8-1.753,9.624,9.624,0,0,1-.241-2.205V286.6h0v-5.656c.006-.723-.259-1.082-.89-1.082h-7.049v2.644h1.321a1.351,1.351,0,0,1,1.261,1.12V295.1h.012v6.287a4.213,4.213,0,0,1-.459,2.33,2.384,2.384,0,0,1-1.964.621H401.3c-2.059,0-2.64-.041-2.64-.041-5.1-.2-7.7-2.23-7.7-5.806a4.79,4.79,0,0,1,2.353-4.438v-1.907h-3.057a10.062,10.062,0,0,0-2.033,6.416c0,6.071,3.954,9.133,10.441,9.155.131,0,1.824.049,1.824.049h20.1a28.739,28.739,0,0,0,3.189-.3,5.109,5.109,0,0,0,2.989-1.721,6.267,6.267,0,0,0,1.2-3.029,6.78,6.78,0,0,0,2.027,3.611,5.767,5.767,0,0,0,4.094,1.434h6.56a10.987,10.987,0,0,0,3.069-.371,5.643,5.643,0,0,0,2.013-1.016,4.365,4.365,0,0,0,1.235-1.611,7.065,7.065,0,0,0,.584-2.047,6.79,6.79,0,0,0,2.025,3.611,5.57,5.57,0,0,0,3.606,1.416v.018h2.656a11.263,11.263,0,0,0,7.516-2.459,15.59,15.59,0,0,0,8.824,2.763c5.48,0,9.109-1.937,10.847-5.293a6.722,6.722,0,0,0,1.948,3.53,5.54,5.54,0,0,0,3.629,1.443,1.662,1.662,0,0,0,.3.022h12.021V289.83h0v-8.738c.006-.716-.262-1.073-.887-1.073h-7.1v2.643h1.316a1.364,1.364,0,0,1,1.27,1.12v20.5h-7.616c-1.806,0-3.052-.517-3.753-1.562a5.469,5.469,0,0,1-.588-1.192,12.627,12.627,0,0,0,.648-4.13c0-6.659-4.662-10.829-11.539-10.829-6.639,0-10.379,3.992-10.379,10.009L462.25,298c0,6.427-5.178,6.333-8.2,6.333ZM479.084,298c-.182,4.9-1.916,7.307-7.275,7.307a8.45,8.45,0,0,1-6.36-2.551,9.936,9.936,0,0,0,1.047-2.811,34.849,34.849,0,0,0,.609-4.551c0-3.337,2.125-6.143,5.557-6.143,3.576,0,5.879,2.006,6.334,6.143A17.948,17.948,0,0,1,479.084,298Z" fill="#fff"/>
      <g id="Group_2" data-name="Group 2">
        <path id="Path_14" data-name="Path 14" d="M265.774,286.859a21.836,21.836,0,0,0-7.906,1.133v4.438H261c.413-2.1,2.091-2.741,4.872-2.741,4.362,0,7.046,2.66,7.046,8.069v6.65H255.336v3.471h22.72V297.716C278.056,290.942,273.2,286.859,265.774,286.859Z" fill="#fff"/>
        <path id="Path_15" data-name="Path 15" d="M344.638,307.879a10.533,10.533,0,0,0,3.052-.377,5.337,5.337,0,0,0,2.063-1.031,4.6,4.6,0,0,0,1.237-1.59,6.847,6.847,0,0,0,.584-2.09,6.851,6.851,0,0,0,2.021,3.641,5.713,5.713,0,0,0,4.1,1.447h.441c2.383,0,4.082-.473,5.088-1.408a6.078,6.078,0,0,0,1.846-3.68,6.893,6.893,0,0,0,2.008,3.641,5.743,5.743,0,0,0,4.1,1.447h7.813V288.752h-7.9V291.5h1.767a1.288,1.288,0,0,1,1.229,1.09v5.186h.017v6.66h-4.224a5.392,5.392,0,0,1-2.23-.418,3.33,3.33,0,0,1-1.46-1.157,4.946,4.946,0,0,1-.784-1.767,10.523,10.523,0,0,1-.227-1.953v-7.63h-7.913v2.742h1.782a1.286,1.286,0,0,1,1.208,1.031v6.263a3.873,3.873,0,0,1-.471,2.258,3.725,3.725,0,0,1-2.375.631h-1.024a5.352,5.352,0,0,1-2.225-.418,3.388,3.388,0,0,1-1.466-1.157,4.94,4.94,0,0,1-.765-1.767,9.171,9.171,0,0,1-.246-2.219V294.18h-.015v-.01h-7.9v2.749h1.765a1.29,1.29,0,0,1,1.236,1.09v3.536a3.812,3.812,0,0,1-.489,2.258,2.305,2.305,0,0,1-1.891.631l-13.981-.008a11.166,11.166,0,0,1-2.187-.2q8.381-6.939,9.207-7.6c0-2.279-1.316-4.374-4-6.174a19.406,19.406,0,0,0-20.065-.047c-2.74,1.847-4.114,3.942-4.114,6.221,4.831,4.1,7.842,6.622,9.1,7.6a10.061,10.061,0,0,1-2.076.206h-13V288.752h-8.392a13.77,13.77,0,0,0-4.663.8,11.765,11.765,0,0,0-3.9,2.285,11.148,11.148,0,0,0-2.677,3.569,10.933,10.933,0,0,0-1,4.672,14.559,14.559,0,0,0,.586,3.969,22.807,22.807,0,0,0,1.506,3.834h12.35a9.308,9.308,0,0,1-5.272,3.806v2.424h4.139a17.06,17.06,0,0,0,5.952-6.23h15.189A12.526,12.526,0,0,0,323.272,306a12.421,12.421,0,0,0,6.514,1.877Zm-56.329-6.016a12.175,12.175,0,0,1-.282-2.642,7.325,7.325,0,0,1,.672-3.359,6.859,6.859,0,0,1,1.655-2.157,5.885,5.885,0,0,1,2.1-1.16,7.181,7.181,0,0,1,2.071-.342h3.293v12.231h-8.537A10.275,10.275,0,0,1,288.309,301.863Zm25.79-6.287c.183-1.059,1.059-2,2.555-2.935a13.755,13.755,0,0,1,6.741-1.5,13.988,13.988,0,0,1,6.79,1.5,4.424,4.424,0,0,1,2.431,2.935l-9.221,7.807C319.2,299.949,316.16,297.341,314.1,295.576Z" fill="#fff"/>
      </g>
      <g id="Group_3" data-name="Group 3">
        <path id="Path_16" data-name="Path 16" d="M273.082,238.928a2.844,2.844,0,0,0,2.007-.726,2.349,2.349,0,0,0,.787-1.8,2.259,2.259,0,0,0-.787-1.7,2.87,2.87,0,0,0-2.007-.732,2.833,2.833,0,0,0-1.964.732,2.2,2.2,0,0,0-.825,1.7,2.287,2.287,0,0,0,.825,1.8A2.8,2.8,0,0,0,273.082,238.928Z" fill="#fff"/>
        <path id="Path_17" data-name="Path 17" d="M265.233,238.928a2.916,2.916,0,0,0,2-.726,2.279,2.279,0,0,0,.852-1.8,2.2,2.2,0,0,0-.852-1.7,2.945,2.945,0,0,0-2-.732,2.875,2.875,0,0,0-1.974.732,2.223,2.223,0,0,0-.812,1.7,2.309,2.309,0,0,0,.812,1.8A2.847,2.847,0,0,0,265.233,238.928Z" fill="#fff"/>
        <path id="Path_18" data-name="Path 18" d="M500.441,267.915a2.907,2.907,0,0,0-2,.7,2.275,2.275,0,0,0-.791,1.775,2.2,2.2,0,0,0,.791,1.725,2.885,2.885,0,0,0,2,.71,2.915,2.915,0,0,0,1.979-.71,2.2,2.2,0,0,0,.814-1.725,2.276,2.276,0,0,0-.814-1.775A2.938,2.938,0,0,0,500.441,267.915Z" fill="#fff"/>
        <path id="Path_19" data-name="Path 19" d="M273.425,264.223h0a.593.593,0,0,0,.077.207c.114.2.409.321.853.321h54.206a12.5,12.5,0,0,0,6.156-1.859,12.346,12.346,0,0,0,6.464,1.859h44.2a11.221,11.221,0,0,0,7.5-2.454,15.634,15.634,0,0,0,8.81,2.757c7.953,0,12.015-4.084,12.015-10.658,0-6.645-4.651-10.815-11.511-10.815-6.633,0-10.375,3.991-10.375,10L391.781,255c0,5.758-4.158,6.272-7.2,6.327v-.018H341.79a10.875,10.875,0,0,1-2.185-.189c5.555-4.577,8.606-7.1,9.146-7.529,0-2.27-1.3-4.345-3.975-6.13a17.479,17.479,0,0,0-9.95-2.805,17.7,17.7,0,0,0-9.965,2.75c-2.717,1.84-4.084,3.915-4.084,6.185,4.8,4.056,7.784,6.565,9.041,7.529a9.776,9.776,0,0,1-2.067.189l-49.4.018V244.063H275.5c-.634,0-1.583.753-1.893,2.36a9.918,9.918,0,0,0-7.279-2.6c-4.737,0-10.2,2.925-10.2,10.855s5.048,10.148,9.8,10.148a10.918,10.918,0,0,0,7.495-2.73Zm-6.052-2.09c-3.024,0-6.192-1.243-6.192-7.531,0-6.051,3.4-7.732,6.874-7.732a10.043,10.043,0,0,1,5.37,1.681v11.214A8.816,8.816,0,0,1,267.373,262.133Zm58.232-9.6c.184-1.04,1.051-1.977,2.532-2.908a13.768,13.768,0,0,1,6.694-1.484,13.979,13.979,0,0,1,6.744,1.484,4.386,4.386,0,0,1,2.414,2.908l-9.158,7.747C330.685,256.883,327.651,254.3,325.605,252.538ZM408.6,255c-.179,4.9-1.922,7.3-7.273,7.3a8.42,8.42,0,0,1-6.342-2.551,9.934,9.934,0,0,0,1.053-2.8,35.241,35.241,0,0,0,.593-4.552c0-3.327,2.126-6.131,5.563-6.131,3.56,0,5.865,2,6.313,6.131A18.989,18.989,0,0,1,408.6,255Z" fill="#fff"/>
      </g>
      <path id="Path_20" data-name="Path 20" d="M514.32,261.36H512.3a1.275,1.275,0,0,1-1-.816l-1.77-7.7a12.444,12.444,0,0,0-8.344-8.328,25.447,25.447,0,0,0-4.131-.6c-.21-.005-.417-.005-.625-.005-4.451,0-8.771.96-10.572,1.848l-.429.211v3.121h2.449l.238-.194c1.023-.82,4.6-1.966,8.051-1.966l.527.014a8.518,8.518,0,0,1,8.5,6.272l1.621,8.113-78.176.009V238.012c.008-.722-.248-1.085-.886-1.085h-7.089v2.642h1.316a1.369,1.369,0,0,1,1.263,1.118v24.064H514.32Z" fill="#fff"/>
    </g>
    <g id="Group_7" data-name="Group 7">
      <g id="Group_5" data-name="Group 5">
        <path id="Path_21" data-name="Path 21" d="M255.336,347.844h1.129a.968.968,0,0,0,.827-.86v-13.5a.962.962,0,0,0-.827-.884h-1.129v-1.766h7.227V332.6H260.39v8.263l6.453-6.812c.829-.86.614-1.451-.322-1.451h-.474v-1.766h6.511V332.6h-.76a2.352,2.352,0,0,0-1.479.884l-5.086,5.079,5.676,8.421a1.611,1.611,0,0,0,1.2.86h.725v1.705h-4.867V347.94l-4.862-7.233-2.711,2.721v4.416h2.173v1.705h-7.227Z" fill="#fff"/>
        <path id="Path_22" data-name="Path 22" d="M274.816,347.844h1.047a.8.8,0,0,0,.718-.733v-9a.818.818,0,0,0-.7-.752h-1.179v-1.818h4.229c.382,0,.534.318.534,1.227v10.341a.783.783,0,0,0,.728.733h1.047v1.705h-6.428Zm1.475-15.406a1.655,1.655,0,0,1,3.309,0,1.655,1.655,0,0,1-3.309,0Z" fill="#fff"/>
        <path id="Path_23" data-name="Path 23" d="M283.089,347.844h1.044a.8.8,0,0,0,.715-.733v-9a.837.837,0,0,0-.715-.752h-1.148v-1.818h4.086c.4,0,.7.373.676,1.711v.375a8.239,8.239,0,0,1,5.5-2.252c1.993,0,3.661.725,3.661,3.478v8.256a.771.771,0,0,0,.7.733h.883v1.705h-6.4v-1.705h1.921V339.81c0-1.732-.767-2.16-2.185-2.16a8.048,8.048,0,0,0-4.086,1.336v8.858h1.947v1.705h-6.605Z" fill="#fff"/>
        <path id="Path_24" data-name="Path 24" d="M299.617,350.832c0-1.633,1.144-2.512,2.424-3.147a2.085,2.085,0,0,1-1.092-1.9,3.27,3.27,0,0,1,1.422-2.6,3.978,3.978,0,0,1-1.633-3.311c0-2.648,2.038-4.5,5.347-4.5a8.6,8.6,0,0,1,1.735.166h4.814v1.818h-1.2c-.267,0-.594.209-.594.481a3.354,3.354,0,0,1,.618,2.031c0,2.586-2.052,4.328-5.371,4.328a6.693,6.693,0,0,1-2.594-.453,2.033,2.033,0,0,0-.373,1.18c0,.691.454.992,1.307.992h3.944c2.765,0,4.25,1.092,4.25,3.463,0,2.758-1.933,4.767-7.091,4.767C301.232,354.15,299.617,352.758,299.617,350.832Zm10.264-.826c0-1.1-.613-1.58-2.16-1.58h-4.554a2.191,2.191,0,0,0-.933,1.822c0,1.256.752,2.059,3.418,2.059C308.6,352.307,309.881,351.315,309.881,350.006Zm-1.1-10.133a2.686,2.686,0,1,0-5.371,0,2.686,2.686,0,0,0,5.371,0Z" fill="#fff"/>
        <path id="Path_25" data-name="Path 25" d="M322.931,348.855c-.192,0-.337.3-.394.694H320.5V344.1h2.115l.261,2.265a4.859,4.859,0,0,0,3.908,1.426c2.144,0,3.557-.99,3.557-3.051,0-2.535-1.878-2.836-4.6-3.58-3.293-.908-4.916-2.275-4.916-5.453,0-3.371,2.484-5.056,5.926-5.056a6.749,6.749,0,0,1,3.381.773c.18,0,.365-.32.387-.586h1.959v4.947H330.41l-.257-1.873a4.459,4.459,0,0,0-3.4-1.283c-1.94,0-3.285.752-3.285,2.777,0,2.2,1.712,2.571,4.282,3.262,3.576.965,5.394,2.117,5.394,5.568,0,3.583-2.184,5.512-6.315,5.512A7.249,7.249,0,0,1,322.931,348.855Z" fill="#fff"/>
        <path id="Path_26" data-name="Path 26" d="M335.33,345.543c0-2.895,2.3-4.258,5.537-4.258a13.278,13.278,0,0,1,3.211.375v-1.85c0-1.785-1.038-2.429-2.83-2.429a5.056,5.056,0,0,0-3.641,1.314H336.27v-2.218a12.153,12.153,0,0,1,5.479-1.1c3.288,0,5.216,1.045,5.216,4.145v7.462a.8.8,0,0,0,.857.86h.714v1.439a3.608,3.608,0,0,1-1.844.432c-1.525,0-2.326-.623-2.535-1.9a5.132,5.132,0,0,1-4.284,1.9C337.206,349.715,335.33,348.32,335.33,345.543Zm8.748.767v-3.037a12.82,12.82,0,0,0-2.617-.275c-2.039,0-3.264.723-3.264,2.461,0,1.715.956,2.4,2.586,2.4A4.276,4.276,0,0,0,344.078,346.31Z" fill="#fff"/>
        <path id="Path_27" data-name="Path 27" d="M351.3,346.262v-8.184a.8.8,0,0,0-.733-.717h-1.023v-1.818h4.647v9.81c0,1.821.938,2.272,2.245,2.272a7.416,7.416,0,0,0,3.979-1.385v-8.879h-2v-1.818h4.889v11.549a.839.839,0,0,0,.761.752h1.065v1.705H361.1c-.375,0-.642-.321-.642-1.631v-.342a7.834,7.834,0,0,1-5.4,2.168C353.1,349.744,351.3,348.955,351.3,346.262Z" fill="#fff"/>
        <path id="Path_28" data-name="Path 28" d="M366.671,342.7c0-5.344,3.316-7.328,6.119-7.328a5.7,5.7,0,0,1,4.3,1.658V332.6h-2.024v-1.766h4.388c.371,0,.536.266.536.721v15.537a.831.831,0,0,0,.717.752h1.042v1.705h-4.038c-.322,0-.525-.4-.565-1.924a5.929,5.929,0,0,1-4.643,2.09C369.664,349.715,366.671,348.074,366.671,342.7Zm10.416,3.346v-7.467a5.155,5.155,0,0,0-3.357-1.176c-2.057,0-4.066,1.127-4.066,5.215,0,4.277,1.873,5.3,3.664,5.3A4.951,4.951,0,0,0,377.087,346.051Z" fill="#fff"/>
      </g>
      <g id="Group_6" data-name="Group 6">
        <path id="Path_29" data-name="Path 29" d="M389.266,342.875V333.6a.954.954,0,0,0-.856-.883h-1.068v-1.764h7.352v1.764h-2.352v10.33c0,3.734,1.846,4.672,4.545,4.672,2.673,0,4.51-.912,4.51-4.672v-10.33h-2.342v-1.764H405.6v1.764h-1.066a.977.977,0,0,0-.834.883v9.279c0,4.766-2.429,6.98-7.131,6.98C391.991,349.855,389.266,347.641,389.266,342.875Z" fill="#fff"/>
        <path id="Path_30" data-name="Path 30" d="M406.539,347.949h1.049a.809.809,0,0,0,.725-.715v-9.013a.874.874,0,0,0-.725-.748h-1.153v-1.817h4.1c.4,0,.689.377.661,1.715v.375a8.229,8.229,0,0,1,5.506-2.254c2.012,0,3.664.729,3.664,3.481v8.261a.766.766,0,0,0,.695.715h.884v1.723h-6.4v-1.723h1.938v-8.008c0-1.746-.782-2.169-2.194-2.169a8.047,8.047,0,0,0-4.094,1.331v8.846h1.955v1.723h-6.61Z" fill="#fff"/>
        <path id="Path_31" data-name="Path 31" d="M423.363,347.949h1.043a.8.8,0,0,0,.719-.715v-9.013a.84.84,0,0,0-.691-.748h-1.182v-1.817h4.226c.379,0,.524.319.524,1.235v10.343a.784.784,0,0,0,.738.715h1.037v1.723h-6.414Zm1.469-15.392a1.656,1.656,0,1,1,1.654,1.627A1.631,1.631,0,0,1,424.832,332.557Z" fill="#fff"/>
        <path id="Path_32" data-name="Path 32" d="M431.545,338.332c-.215-.506-.565-.859-1-.859h-.53v-1.817h6.17v1.817h-1.972l3.467,9.388h.064l2.967-7.83c.318-.883.26-1.558-.725-1.558H439.3v-1.817h5.613v1.817h-.49a1.222,1.222,0,0,0-1.09.884l-4.6,11.315H436.08Z" fill="#fff"/>
        <path id="Path_33" data-name="Path 33" d="M445.018,342.713c0-4.432,2.755-7.221,6.816-7.221,3.932,0,6.213,2.061,6.213,6.744,0,.4-.024.77-.024.885h-9.98c.1,3.262,1.508,4.859,4.314,4.859a4.122,4.122,0,0,0,3.6-1.574h1.646v1.975a9.267,9.267,0,0,1-5.48,1.453C447.43,349.834,445.018,347.1,445.018,342.713Zm10.1-1.332c-.1-2.971-1.248-4.09-3.287-4.09-2.107,0-3.475,1.338-3.746,4.09Z" fill="#fff"/>
        <path id="Path_34" data-name="Path 34" d="M460.15,347.949h1.039a.8.8,0,0,0,.731-.715v-9.013a.863.863,0,0,0-.731-.748h-1.144v-1.817h4.092c.4,0,.675.346.675,1.871v.455a5.214,5.214,0,0,1,4.17-2.429,3.142,3.142,0,0,1,.8.1v2.381h-.562a6.056,6.056,0,0,0-4.4,1.416v8.5h2.213v1.723H460.15Z" fill="#fff"/>
        <path id="Path_35" data-name="Path 35" d="M470.926,349.029v-2.914h1.736c.336,1.311,1.234,1.834,3.109,1.834,1.92,0,3.1-.685,3.1-2.129,0-1.308-.961-1.689-3.348-2.064-2.884-.424-4.371-1.336-4.371-4.113,0-2.618,1.993-4.151,5.342-4.151a12.783,12.783,0,0,1,4.6.7v2.778h-1.684c-.3-1.043-1.068-1.547-3.025-1.547-1.715,0-2.723.689-2.723,1.84,0,1.224.748,1.658,3.174,2.029,3.2.486,4.711,1.34,4.711,4.123,0,2.67-1.873,4.416-5.748,4.416A12.242,12.242,0,0,1,470.926,349.029Z" fill="#fff"/>
        <path id="Path_36" data-name="Path 36" d="M483.152,347.949h1.039a.79.79,0,0,0,.719-.715v-9.013a.833.833,0,0,0-.7-.748h-1.182v-1.817h4.229c.373,0,.537.319.537,1.235v10.343a.762.762,0,0,0,.722.715h1.051v1.723h-6.42Zm1.469-15.392a1.657,1.657,0,1,1,1.658,1.627A1.635,1.635,0,0,1,484.621,332.557Z" fill="#fff"/>
        <path id="Path_37" data-name="Path 37" d="M491.594,346.348v-8.875H489.8v-1.817h1.791v-3.767h2.9v3.767h3.174v1.817h-3.174v8.558c0,1.582.527,1.918,1.943,1.918h1.407v1.559a6.942,6.942,0,0,1-2.319.347C493.043,349.855,491.594,348.977,491.594,346.348Z" fill="#fff"/>
        <path id="Path_38" data-name="Path 38" d="M501.541,352.4a6.986,6.986,0,0,0,3.875-3.073l-4.727-10.992c-.214-.506-.56-.859-.992-.859h-.506v-1.817H505.4v1.817h-2.068l3.592,8.615,2.881-7.057c.379-.916.328-1.558-.672-1.558h-.684v-1.817h5.721v1.817h-.619c-.432,0-.8.353-1.047.884l-4.428,10.237c-1.283,2.969-2.732,4.6-4.092,5.41h-2.443Z" fill="#fff"/>
      </g>
    </g>
  </g>
</svg>
