<svg xmlns="http://www.w3.org/2000/svg" width="64" height="64" viewBox="0 0 64 64">
  <path id="snapchat" d="M32,0A32,32,0,1,0,64,32,32,32,0,0,0,32,0ZM51.164,42.332c-.23.537-1.267,1.3-4.891,1.86-.3.045-.412.432-.588,1.241-.064.294-.129.584-.219.888a.484.484,0,0,1-.519.387H44.9a4.545,4.545,0,0,1-.811-.1,10.859,10.859,0,0,0-2.177-.23,9.672,9.672,0,0,0-1.572.132,7.531,7.531,0,0,0-2.988,1.524,8.438,8.438,0,0,1-5.172,2.042c-.1,0-.2,0-.295-.008-.062.005-.127.008-.192.008a8.432,8.432,0,0,1-5.169-2.04,7.55,7.55,0,0,0-2.992-1.526,9.659,9.659,0,0,0-1.57-.132,10.764,10.764,0,0,0-2.178.246,4.765,4.765,0,0,1-.812.117.51.51,0,0,1-.563-.4c-.09-.308-.155-.605-.219-.895-.162-.741-.277-1.2-.587-1.245-3.624-.56-4.661-1.323-4.892-1.865a.7.7,0,0,1-.056-.231A.407.407,0,0,1,13,41.674c5.57-.917,8.068-6.611,8.172-6.853,0-.006.005-.013.009-.019a2.126,2.126,0,0,0,.2-1.783c-.382-.9-1.629-1.3-2.455-1.558-.2-.064-.393-.125-.544-.185-1.647-.651-1.784-1.319-1.719-1.659a1.555,1.555,0,0,1,1.513-.985,1.058,1.058,0,0,1,.45.09,4.807,4.807,0,0,0,1.985.523,1.636,1.636,0,0,0,1.186-.378c-.021-.377-.046-.771-.071-1.178-.166-2.633-.372-5.906.462-7.773a10.077,10.077,0,0,1,9.356-6.034l.686-.007h.092a10.094,10.094,0,0,1,9.373,6.038c.834,1.869.627,5.144.461,7.775l-.007.115c-.023.366-.045.722-.064,1.063a1.587,1.587,0,0,0,1.081.376h0a4.979,4.979,0,0,0,1.871-.52,1.4,1.4,0,0,1,.581-.115,1.785,1.785,0,0,1,.668.127l.013.005a1.228,1.228,0,0,1,.934,1c.007.386-.288.966-1.732,1.537-.15.059-.341.12-.544.184-.826.262-2.072.658-2.455,1.558a2.121,2.121,0,0,0,.2,1.782l.009.02c.1.242,2.6,5.934,8.172,6.852a.408.408,0,0,1,.341.425.684.684,0,0,1-.057.233Zm0,0"/>
</svg>
