<svg xmlns="http://www.w3.org/2000/svg" width="64" height="64" viewBox="0 0 64 64">
  <path id="twitter_3_" data-name="twitter (3)" d="M32,0A32,32,0,1,0,64,32,32,32,0,0,0,32,0ZM46.611,24.95q.021.472.021.949c0,9.706-7.388,20.9-20.9,20.9h0a20.79,20.79,0,0,1-11.258-3.3,14.939,14.939,0,0,0,1.752.1,14.738,14.738,0,0,0,9.123-3.144,7.353,7.353,0,0,1-6.862-5.1,7.32,7.32,0,0,0,3.317-.126,7.347,7.347,0,0,1-5.893-7.2c0-.033,0-.063,0-.094a7.294,7.294,0,0,0,3.327.918,7.351,7.351,0,0,1-2.274-9.806,20.853,20.853,0,0,0,15.14,7.674,7.349,7.349,0,0,1,12.516-6.7,14.732,14.732,0,0,0,4.664-1.783,7.374,7.374,0,0,1-3.23,4.062,14.649,14.649,0,0,0,4.218-1.157,14.926,14.926,0,0,1-3.664,3.8Zm0,0"/>
</svg>
