<svg xmlns="http://www.w3.org/2000/svg" width="40" height="44" viewBox="0 0 40 44">
  <g id="video" transform="translate(0 0)">
    <path id="Path_510" data-name="Path 510" d="M39.112,17.761H8.825L37.916,9.6a.885.885,0,0,0,.531-.411.834.834,0,0,0,.075-.654L37,3.451A4.95,4.95,0,0,0,32.247,0,5.07,5.07,0,0,0,30.88.188L3.566,7.848A4.879,4.879,0,0,0,.618,10.137,4.615,4.615,0,0,0,.2,13.772l1.487,4.97V39.218A4.869,4.869,0,0,0,6.623,44H17.29a.86.86,0,1,0,0-1.719H6.623a3.119,3.119,0,0,1-3.165-3.064V27.523H38.224V39.218a3.119,3.119,0,0,1-3.165,3.064H24.392a.86.86,0,1,0,0,1.719H35.059A4.869,4.869,0,0,0,40,39.218v-20.6a.874.874,0,0,0-.888-.859ZM23.459,25.8l3.772-6.324h4.906L28.365,25.8Zm-6.956,0,3.772-6.324H25.18L21.409,25.8Zm-6.956,0,3.771-6.324h4.906L14.452,25.8Zm3.3-11.125L6.531,8.806l4.732-1.327a.86.86,0,0,0,.117.133L17.7,13.484l-4.732,1.327a.863.863,0,0,0-.117-.133Zm11.9-10.814,6.316,5.873-4.732,1.327a.845.845,0,0,0-.117-.133L19.894,5.059l4.732-1.327A.86.86,0,0,0,24.743,3.864ZM18.061,5.738l6.316,5.872-4.732,1.327a.845.845,0,0,0-.117-.133L13.212,6.933l4.732-1.327A.916.916,0,0,0,18.061,5.738Zm13.312-3.9a3.235,3.235,0,0,1,.873-.121A3.173,3.173,0,0,1,35.294,3.93L36.57,8.191l-3.562,1a.882.882,0,0,0-.117-.133L26.575,3.185Zm-29.2,9.126A3.124,3.124,0,0,1,4.06,9.5l.522-.146a.882.882,0,0,0,.117.133l6.316,5.873-7.838,2.2L1.9,13.294a2.956,2.956,0,0,1,.272-2.328ZM3.459,19.48h7.81L7.5,25.8H3.459ZM30.415,25.8l3.771-6.324h4.038V25.8Zm0,0" transform="translate(0 0)" fill="#fff" fill-rule="evenodd"/>
    <path id="Path_511" data-name="Path 511" d="M205.324,349.6a.858.858,0,0,0-.429-.743l-7.54-4.353a.858.858,0,0,0-1.287.743v8.707a.858.858,0,0,0,1.287.743l7.54-4.353a.858.858,0,0,0,.429-.743Zm-7.54,2.867v-5.734l4.966,2.867Zm0,0" transform="translate(-178.48 -314.777)" fill="#fff" fill-rule="evenodd"/>
    <path id="Path_512" data-name="Path 512" d="M225.631,492a.858.858,0,1,0,.858.858A.86.86,0,0,0,225.631,492Zm0,0" transform="translate(-204.789 -449.716)" fill="#fff" fill-rule="evenodd"/>
  </g>
</svg>
