<svg xmlns="http://www.w3.org/2000/svg" xmlns:xlink="http://www.w3.org/1999/xlink" width="112.679" height="111.43" viewBox="0 0 112.679 111.43">
  <defs>
    <linearGradient id="linear-gradient" y1="0.5" x2="1" y2="0.5" gradientUnits="objectBoundingBox">
      <stop offset="0" stop-color="#129b9f"/>
      <stop offset="0.525" stop-color="#002b7f"/>
      <stop offset="0.609" stop-color="#0a2b7f"/>
      <stop offset="0.753" stop-color="#252c82"/>
      <stop offset="0.939" stop-color="#512e86"/>
      <stop offset="1" stop-color="#622f88"/>
    </linearGradient>
    <linearGradient id="linear-gradient-4" x1="0" y1="0.5" x2="1" y2="0.5" xlink:href="#linear-gradient"/>
  </defs>
  <g id="Group_36" data-name="Group 36" transform="translate(-490.75 -726.883)">
    <g id="Group_3" data-name="Group 3" transform="translate(526.778 752.39)">
      <path id="Path_18" data-name="Path 18" d="M604.233,792.981a101.154,101.154,0,0,1-20.3,7.131v36.065a20.3,20.3,0,0,0,40.594,0V800.112A101.179,101.179,0,0,1,604.233,792.981Zm-4.488,8.374a8.286,8.286,0,0,1,3.684.406,11.514,11.514,0,0,1,.788-2.568,11.624,11.624,0,0,1,.817,2.568,8.3,8.3,0,0,1,3.689-.406,6.788,6.788,0,0,0-2.9,1.625c3.748-.938,7.6,1.469,7.6,1.469a10.915,10.915,0,0,0-6.289.31,9.078,9.078,0,0,1,6.255,5.2,13.011,13.011,0,0,0-6.627-3.255c2.028,1.9,2.152,5.382,2.152,5.382s-1.463-3.257-3.961-4.476c-.017.843-.024,1.782-.024,2.866,0,3.373.082,6.4.213,8.8a3.1,3.1,0,0,1,.949-.235,4.249,4.249,0,0,0-.824.974,4.63,4.63,0,0,1,1.607.016.138.138,0,0,0-.023.044,24.236,24.236,0,0,0-2.621,1.265,24.229,24.229,0,0,0-2.884-1.368.275.275,0,0,0-.024-.046,4.588,4.588,0,0,1,1.76.052,4.223,4.223,0,0,0-.8-.936,3.085,3.085,0,0,1,1.03.267c.135-2.405.218-5.447.218-8.836,0-1.085-.01-2.023-.026-2.866-2.505,1.22-3.958,4.476-3.958,4.476s.121-3.483,2.153-5.382a13,13,0,0,0-6.63,3.255,9.071,9.071,0,0,1,6.25-5.2,10.915,10.915,0,0,0-6.288-.31s3.853-2.408,7.6-1.469A6.779,6.779,0,0,0,599.745,801.355Zm13.069,45.967a15.035,15.035,0,0,1-3.417-.815,4.719,4.719,0,0,0-5.165,1.153,4.718,4.718,0,0,0-5.162-1.153,15.113,15.113,0,0,1-3.42.815l-2.4-11.125a9.2,9.2,0,0,0,5.261-.988,5.183,5.183,0,0,1,4.078-.374c.744.328,1.339,1.615,1.633,3.06,0,0,.009,0,.009.259a1.8,1.8,0,0,1,.008-.259c.3-1.445.9-2.732,1.631-3.06a5.2,5.2,0,0,1,4.085.374,9.2,9.2,0,0,0,5.26.988Zm-6.769-22.629-.577.393c.834.576,1.515,1.045,2.078,1.431.378-.259.72-.377.894-.259a.259.259,0,0,1,.107.193,1.051,1.051,0,0,1-.215.607c.994.678,1.443.986,1.659,1.127a.933.933,0,0,1,.781-.37.831.831,0,0,1,.885.764.739.739,0,0,1-.443.631,1.14,1.14,0,0,1-.6.137A6.938,6.938,0,0,1,607.462,828a1.639,1.639,0,0,1-.839.4.345.345,0,0,1-.18-.045.277.277,0,0,1-.107-.193,1.242,1.242,0,0,1,.274-.708c-.084-.054-.167-.1-.239-.147l.017.006c-.606-.367-1.31-.823-2.158-1.387-.847.564-1.556,1.02-2.155,1.387l.018-.006c-.076.045-.157.093-.242.147a1.254,1.254,0,0,1,.276.708.3.3,0,0,1-.108.193.328.328,0,0,1-.177.045A1.621,1.621,0,0,1,601,828a6.966,6.966,0,0,1-3.154,1.349,1.149,1.149,0,0,1-.6-.132.749.749,0,0,1-.449-.636.832.832,0,0,1,.884-.764.96.96,0,0,1,.79.37c.2-.14.66-.448,1.651-1.127a1.088,1.088,0,0,1-.217-.607.26.26,0,0,1,.11-.193c.169-.117.519,0,.893.259.562-.386,1.247-.855,2.079-1.431-.188-.127-.382-.258-.579-.393-5.3-3.62-8.51-3.915-10.445-3.968,0,0,5.343-1.262,11.873,3.242l.385.266.386-.266c6.531-4.5,11.875-3.242,11.875-3.242C614.555,820.777,611.342,821.073,606.045,824.693Z" transform="translate(-583.935 -792.981)" fill="url(#linear-gradient)"/>
      <path id="Path_19" data-name="Path 19" d="M628.292,913.354a1.594,1.594,0,0,0-1.745,1.574,1.34,1.34,0,0,0,1.5,1.392,1.8,1.8,0,0,0,1.037-.3c-.072.821-.348,1.308-1.214,1.308a1.009,1.009,0,0,1-.7-.218h-.374v.755a2.627,2.627,0,0,0,1.03.184,2.15,2.15,0,0,0,2.3-2.448C630.124,914.089,629.343,913.354,628.292,913.354Zm-.02,2.278a.653.653,0,0,1-.715-.736c0-.492.2-.872.735-.872.5,0,.781.38.807,1.359A1.512,1.512,0,0,1,628.273,915.632Z" transform="translate(-610.193 -867.155)" fill="url(#linear-gradient)"/>
      <path id="Path_20" data-name="Path 20" d="M619.892,914.174v.681h.263l.544-.288v3.519h1.024v-4.594h-.682Z" transform="translate(-606.092 -867.24)" fill="url(#linear-gradient)"/>
      <path id="Path_21" data-name="Path 21" d="M638.57,915.139a1.45,1.45,0,0,0-.833.229h-.02v-1.077h2.035v-.8h-2.771v2.684h.611a.9.9,0,0,1,.722-.309c.373,0,.669.224.669.749a.792.792,0,0,1-.894.787,1.208,1.208,0,0,1-.873-.32h-.374v.727a2.2,2.2,0,0,0,1.259.328c1.116,0,1.9-.585,1.9-1.556A1.321,1.321,0,0,0,638.57,915.139Z" transform="translate(-616.538 -867.24)" fill="url(#linear-gradient-4)"/>
      <path id="Path_22" data-name="Path 22" d="M645.485,914.291h2.35v.027l-1.806,3.366v.4h.978l1.582-3.723v-.871h-3.1Z" transform="translate(-621.862 -867.24)" fill="url(#linear-gradient)"/>
    </g>
    <path id="Path_23" data-name="Path 23" d="M583.622,730.615q-2.251-.182-4.55-.184a55.386,55.386,0,0,0-37.21,14.29" transform="translate(-31.232 -2.048)" fill="none" stroke="#00568e" stroke-miterlimit="10" stroke-width="3"/>
    <path id="Path_24" data-name="Path 24" d="M706.249,941.572a55.734,55.734,0,0,0,26.691-35" transform="translate(-132.528 -110.587)" fill="none" stroke="#99c7da" stroke-miterlimit="10" stroke-width="3"/>
    <path id="Path_25" data-name="Path 25" d="M512.352,767.664a55.45,55.45,0,0,0-18.38,41.3,56.1,56.1,0,0,0,.448,7.088" transform="translate(-1.722 -24.991)" fill="none" stroke="#00568e" stroke-miterlimit="10" stroke-width="3"/>
    <path id="Path_26" data-name="Path 26" d="M693.728,807.833a49.369,49.369,0,0,0-43.057-62.887" transform="translate(-98.28 -10.992)" fill="none" stroke="#129b9f" stroke-miterlimit="10" stroke-width="3"/>
    <path id="Path_27" data-name="Path 27" d="M512.176,843.756a49.345,49.345,0,0,0,70.655,55.057" transform="translate(-12.15 -71.879)" fill="none" stroke="#007eb9" stroke-miterlimit="10" stroke-width="3"/>
    <path id="Path_28" data-name="Path 28" d="M676.223,901.213a44.947,44.947,0,0,0,28.61-47.949" transform="translate(-114.025 -77.738)" fill="none" stroke="#1b4596" stroke-miterlimit="10" stroke-width="3"/>
    <path id="Path_29" data-name="Path 29" d="M567.366,747.578a44.892,44.892,0,0,0-46.509,34.734" transform="translate(-18.288 -12.559)" fill="none" stroke="#6ebdc3" stroke-miterlimit="10" stroke-width="3"/>
    <path id="Path_30" data-name="Path 30" d="M631.091,773.613a44.958,44.958,0,0,0-45.626-2.079" transform="translate(-58.1 -24.151)" fill="none" stroke="#1b4596" stroke-miterlimit="10" stroke-width="3"/>
    <path id="Path_31" data-name="Path 31" d="M509,931.456a49.33,49.33,0,0,0,43.048,31.193,49.859,49.859,0,0,0,5.29.028" transform="translate(-10.98 -125.92)" fill="none" stroke="#141d50" stroke-miterlimit="10" stroke-width="3"/>
    <path id="Path_32" data-name="Path 32" d="M730.787,788.2a49.323,49.323,0,0,0-30.5-42.034" transform="translate(-128.854 -11.743)" fill="none" stroke="#602c86" stroke-miterlimit="10" stroke-width="3"/>
    <path id="Path_33" data-name="Path 33" d="M720.136,833.069a40.564,40.564,0,0,0,.322-5.111,38.911,38.911,0,0,0-10.363-26.682" transform="translate(-134.897 -45.703)" fill="none" stroke="#a1559c" stroke-miterlimit="10" stroke-width="3"/>
    <path id="Path_34" data-name="Path 34" d="M539.475,820.476a41.2,41.2,0,0,0-6.565,22.441c0,22.167,17.211,40.137,38.443,40.137a37.044,37.044,0,0,0,7.747-.815" transform="translate(-25.715 -57.534)" fill="none" stroke="#4aa0ca" stroke-miterlimit="10" stroke-width="3"/>
    <circle id="Ellipse_23" data-name="Ellipse 23" cx="1.348" cy="1.348" r="1.348" transform="translate(550.688 727.108)" fill="#00568e"/>
    <circle id="Ellipse_24" data-name="Ellipse 24" cx="1.348" cy="1.348" r="1.348" transform="translate(491.178 789.131)" fill="#00568e"/>
    <circle id="Ellipse_25" data-name="Ellipse 25" cx="1.348" cy="1.348" r="1.348" transform="translate(498.746 771.117)" fill="#007eb9"/>
    <circle id="Ellipse_26" data-name="Ellipse 26" cx="1.348" cy="1.348" r="1.348" transform="translate(568.894 825.732)" fill="#007eb9"/>
    <circle id="Ellipse_27" data-name="Ellipse 27" cx="1.348" cy="1.348" r="1.348" transform="translate(572.647 829.46)" fill="#99c7da"/>
    <circle id="Ellipse_28" data-name="Ellipse 28" cx="1.348" cy="1.348" r="1.348" transform="translate(599.064 794.963)" fill="#99c7da"/>
    <circle id="Ellipse_29" data-name="Ellipse 29" cx="1.348" cy="1.348" r="1.348" transform="translate(594.208 794.963)" fill="#129b9f"/>
    <circle id="Ellipse_30" data-name="Ellipse 30" cx="1.348" cy="1.348" r="1.348" transform="translate(551.366 732.606)" fill="#129b9f"/>
    <circle id="Ellipse_31" data-name="Ellipse 31" cx="1.348" cy="1.348" r="1.348" transform="translate(546.762 733.582)" fill="#6dbec3"/>
    <circle id="Ellipse_32" data-name="Ellipse 32" cx="1.348" cy="1.348" r="1.348" transform="translate(501.443 767.376)" fill="#6ebdc3"/>
    <circle id="Ellipse_33" data-name="Ellipse 33" cx="1.348" cy="1.348" r="1.348" transform="translate(512.322 761.796)" fill="#4aa0ca"/>
    <circle id="Ellipse_34" data-name="Ellipse 34" cx="1.348" cy="1.348" r="1.348" transform="translate(551.778 823.192)" fill="#4aa0ca"/>
    <circle id="Ellipse_35" data-name="Ellipse 35" cx="1.348" cy="1.348" r="1.348" transform="translate(561.346 821.844)" fill="#1b4596"/>
    <circle id="Ellipse_36" data-name="Ellipse 36" cx="1.348" cy="1.348" r="1.348" transform="translate(589.412 774.357)" fill="#1b4596"/>
    <circle id="Ellipse_37" data-name="Ellipse 37" cx="1.348" cy="1.348" r="1.348" transform="translate(583.847 785.4)" fill="#a1559c"/>
    <circle id="Ellipse_38" data-name="Ellipse 38" cx="1.348" cy="1.348" r="1.348" transform="translate(574.152 754.682)" fill="#a1559c"/>
    <circle id="Ellipse_39" data-name="Ellipse 39" cx="1.348" cy="1.348" r="1.348" transform="translate(570.294 733.074)" fill="#602c86"/>
    <circle id="Ellipse_40" data-name="Ellipse 40" cx="1.348" cy="1.348" r="1.348" transform="translate(600.585 774.483)" fill="#602c86"/>
    <circle id="Ellipse_41" data-name="Ellipse 41" cx="1.348" cy="1.348" r="1.348" transform="translate(570.977 747.75)" fill="#1b4596"/>
    <circle id="Ellipse_42" data-name="Ellipse 42" cx="1.348" cy="1.348" r="1.348" transform="translate(526.306 745.806)" fill="#1b4596"/>
    <circle id="Ellipse_43" data-name="Ellipse 43" cx="1.348" cy="1.348" r="1.348" transform="translate(496.668 804.188)" fill="#141d50"/>
    <circle id="Ellipse_44" data-name="Ellipse 44" cx="1.348" cy="1.348" r="1.348" transform="translate(544.387 835.465)" fill="#141d50"/>
  </g>
</svg>
