<svg xmlns="http://www.w3.org/2000/svg" xmlns:xlink="http://www.w3.org/1999/xlink" width="64" height="64" viewBox="0 0 64 64">
  <defs>
    <linearGradient id="linear-gradient" y1="0.5" x2="1" y2="0.5" gradientUnits="objectBoundingBox">
      <stop offset="0" stop-color="#f2fbff"/>
      <stop offset="0.593" stop-color="#faf7f7"/>
      <stop offset="1" stop-color="#f3eae6"/>
    </linearGradient>
    <linearGradient id="linear-gradient-2" x1="0.003" y1="0.5" x2="0.985" y2="0.5" gradientUnits="objectBoundingBox">
      <stop offset="0" stop-color="#f3eae6"/>
      <stop offset="1" stop-color="#cdbfba"/>
    </linearGradient>
    <linearGradient id="linear-gradient-3" x1="0.292" y1="0.5" x2="1.215" y2="0.5" xlink:href="#linear-gradient-2"/>
    <linearGradient id="linear-gradient-4" x1="-2.107" y1="0.5" x2="1.09" y2="0.5" gradientUnits="objectBoundingBox">
      <stop offset="0" stop-color="#9e9797"/>
      <stop offset="1" stop-color="#5b5555"/>
    </linearGradient>
    <linearGradient id="linear-gradient-5" x1="-0.137" y1="0.5" x2="0.628" y2="0.5" gradientUnits="objectBoundingBox">
      <stop offset="0" stop-color="#cdbfba"/>
      <stop offset="1" stop-color="#766e6e"/>
    </linearGradient>
    <linearGradient id="linear-gradient-6" x1="-1.1" y1="0.5" x2="2.097" y2="0.5" xlink:href="#linear-gradient-4"/>
  </defs>
  <g id="Group_725" data-name="Group 725" transform="translate(-796 -779)">
    <circle id="Ellipse_97" data-name="Ellipse 97" cx="32" cy="32" r="32" transform="translate(796 779)" fill="#242424"/>
    <g id="search_1_" data-name="search (1)" transform="translate(811 796)">
      <g id="Group_172" data-name="Group 172" transform="translate(0 3.192)">
        <circle id="Ellipse_55" data-name="Ellipse 55" cx="8.531" cy="8.531" r="8.531" transform="translate(3.192 0)" fill="url(#linear-gradient)"/>
        <path id="Path_326" data-name="Path 326" d="M32.24,94.145H2.153A2.153,2.153,0,0,1,0,91.992V82.485a2.153,2.153,0,0,1,2.153-2.153H32.24a2.153,2.153,0,0,1,2.153,2.153v9.507A2.153,2.153,0,0,1,32.24,94.145Z" transform="translate(0 -80.332)" fill="#fff"/>
        <path id="Path_327" data-name="Path 327" d="M196.6,80.332a8.532,8.532,0,0,1,6.7,13.813h3.768a11.728,11.728,0,0,0-2.429-13.813Z" transform="translate(-183.34 -80.332)" fill="url(#linear-gradient-2)"/>
        <path id="Path_328" data-name="Path 328" d="M163.625,82.837a8.517,8.517,0,0,0-7.207-2.418,8.531,8.531,0,0,1,0,16.9,8.531,8.531,0,0,0,7.207-14.483Z" transform="translate(-145.87 -80.338)" fill="url(#linear-gradient-3)"/>
        <g id="Group_171" data-name="Group 171" transform="translate(3.372 2.435)">
          <path id="Path_329" data-name="Path 329" d="M60.986,117.177c0-.409-.673-.745-1.214-.745-.289,0-.529.1-.6.349l-1.827,6.167-.95-4.063c-.072-.325-.493-.493-.9-.493s-.829.168-.9.493l-.95,4.063-1.827-6.167c-.072-.252-.313-.349-.6-.349-.541,0-1.214.337-1.214.745a.534.534,0,0,0,.024.156l2.392,7.333c.132.421.685.625,1.238.625s1.118-.2,1.214-.625l.625-2.849.625,2.849c.1.421.673.625,1.214.625a1.242,1.242,0,0,0,1.238-.625l2.392-7.333A.535.535,0,0,0,60.986,117.177Z" transform="translate(-49.999 -116.432)" fill="#242424"/>
          <path id="Path_330" data-name="Path 330" d="M217.77,160.817a.491.491,0,0,0-.5.288l-1.07,3.053-.769-2.585c-.1-.325-.349-.361-.613-.361s-.517.036-.613.361l-.769,2.585-1.07-3.053a.5.5,0,0,0-.517-.288c-.481,0-1.226.313-1.226.745a.62.62,0,0,0,.06.252l1.851,4.628c.1.24.409.325.709.325.361,0,.709-.12.781-.325l.793-2.092.793,2.092c.072.2.409.325.769.325.313,0,.625-.084.721-.325l1.851-4.628a.521.521,0,0,0,.048-.228C219,161.13,218.226,160.817,217.77,160.817Z" transform="translate(-199.785 -157.824)" fill="#242424"/>
          <path id="Path_331" data-name="Path 331" d="M342.908,160.817a.491.491,0,0,0-.5.288l-1.07,3.053-.769-2.585c-.1-.325-.349-.361-.613-.361s-.517.036-.613.361l-.769,2.585-1.07-3.053a.5.5,0,0,0-.517-.288c-.481,0-1.226.313-1.226.745a.619.619,0,0,0,.06.252l1.851,4.628c.1.24.409.325.709.325.361,0,.709-.12.781-.325l.793-2.092.793,2.092c.072.2.409.325.769.325.313,0,.625-.084.721-.325l1.851-4.628a.52.52,0,0,0,.048-.228C344.134,161.13,343.365,160.817,342.908,160.817Z" transform="translate(-316.484 -157.824)" fill="#242424"/>
          <path id="Path_332" data-name="Path 332" d="M336.982,160.817c-.481,0-1.226.313-1.226.745a.619.619,0,0,0,.06.252l1.851,4.628a.4.4,0,0,0,.118.159,11.771,11.771,0,0,0,.234-4.012l-.52-1.485A.5.5,0,0,0,336.982,160.817Z" transform="translate(-316.485 -157.824)" fill="url(#linear-gradient-4)"/>
        </g>
        <path id="Path_333" data-name="Path 333" d="M439.819,80.332h-2.767a2.153,2.153,0,0,1,2.153,2.153v9.507a2.153,2.153,0,0,1-2.153,2.153h2.767a2.153,2.153,0,0,0,2.153-2.153V82.485A2.153,2.153,0,0,0,439.819,80.332Z" transform="translate(-407.578 -80.332)" fill="#fff"/>
      </g>
      <g id="Group_174" data-name="Group 174" transform="translate(0 0)">
        <path id="Path_334" data-name="Path 334" d="M263.345,298.321l-3.3-3.3a1.362,1.362,0,0,1,0-1.926l.051-.051a1.362,1.362,0,0,1,1.926,0l3.3,3.3a1.362,1.362,0,0,1,0,1.926l-.051.051A1.362,1.362,0,0,1,263.345,298.321Z" transform="translate(-242.132 -275.131)" fill="url(#linear-gradient-5)"/>
        <path id="Path_335" data-name="Path 335" d="M11.723,33A11.723,11.723,0,1,0,23.447,44.723,11.723,11.723,0,0,0,11.723,33Zm0,20.255a8.531,8.531,0,1,1,8.531-8.531A8.531,8.531,0,0,1,11.723,53.255Z" transform="translate(0 -33)" fill="#f9f9f9"/>
        <g id="Group_173" data-name="Group 173" transform="translate(10.549)">
          <path id="Path_336" data-name="Path 336" d="M157.594,33q-.595,0-1.175.058a11.724,11.724,0,0,1,0,23.33q.58.058,1.175.058a11.723,11.723,0,1,0,0-23.447Z" transform="translate(-156.419 -33)" fill="#fff"/>
        </g>
        <path id="Path_337" data-name="Path 337" d="M306.506,337.044l-2.462,2.462a.987.987,0,0,1-1.4,0l-4.976-4.976a2.728,2.728,0,0,1,3.858-3.858l4.976,4.976A.987.987,0,0,1,306.506,337.044Z" transform="translate(-276.853 -309.853)" fill="#fff"/>
        <path id="Path_338" data-name="Path 338" d="M327.981,335.654,323,330.678a2.728,2.728,0,0,0-3.1-.533,2.723,2.723,0,0,1,.754.533l4.976,4.976a.987.987,0,0,1,0,1.4l-1.985,1.985.477.477a.987.987,0,0,0,1.4,0l2.462-2.462a.987.987,0,0,0,0-1.4Z" transform="translate(-298.328 -309.858)" fill="#fff"/>
      </g>
      <path id="Path_339" data-name="Path 339" d="M260.652,167.061c-.1-.325-.349-.361-.613-.361s-.517.036-.613.361l-.111.374a8.569,8.569,0,0,1-.2,4.654.341.341,0,0,0,.131-.159l.793-2.092.793,2.092c.059.168.3.279.579.313a8.564,8.564,0,0,0,.429-3.793l-.419,1.2Z" transform="translate(-241.64 -157.684)" fill="url(#linear-gradient-6)"/>
    </g>
  </g>
</svg>
