<svg id="youtube" xmlns="http://www.w3.org/2000/svg" width="64" height="64" viewBox="0 0 64 64">
  <path id="Path_216" data-name="Path 216" d="M224.113,219.7l10.123-5.83-10.123-5.83Zm0,0" transform="translate(-195.949 -181.869)"/>
  <path id="Path_217" data-name="Path 217" d="M32,0A32,32,0,1,0,64,32,32,32,0,0,0,32,0ZM52,32.033s0,6.49-.823,9.619a5.011,5.011,0,0,1-3.525,3.524C44.518,46,32,46,32,46s-12.485,0-15.647-.856a5.011,5.011,0,0,1-3.525-3.525C12,38.522,12,32,12,32s0-6.489.824-9.619a5.112,5.112,0,0,1,3.525-3.558C19.482,18,32,18,32,18s12.518,0,15.647.856a5.011,5.011,0,0,1,3.525,3.525c.856,3.129.823,9.651.823,9.651Zm0,0"/>
</svg>
